@startuml
hide empty description
!theme plain
[*] --> 333
333 --> 311: left
311 --> 322: left
322 --> 333: left
322 --> 132: right
132 --> 113: left
113 --> 121: left
121 --> 132: left
121 --> 231: right
231 --> 212: left
212 --> 223: left
223 --> 231: left
223 --> 333: right
212 --> 322: right
231 --> 311: right
113 --> 223: right
132 --> 212: right
311 --> 121: right
333 --> 113: right
221 --> [*]
@enduml
